<?xml version="1.0" standalone="no"?>
<!DOCTYPE svg PUBLIC "-//W3C//DTD SVG 1.1//EN" "http://www.w3.org/Graphics/SVG/1.1/DTD/svg11.dtd" >
<svg xmlns="http://www.w3.org/2000/svg">
<metadata>
Created by FontForge 20120731 at Wed Oct 12 15:36:10 2016
 By admin
</metadata>
<defs>
<font id="iconfont" horiz-adv-x="1024" >
  <font-face 
    font-family="iconfont"
    font-weight="500"
    font-stretch="normal"
    units-per-em="1024"
    panose-1="2 0 6 3 0 0 0 0 0 0"
    ascent="896"
    descent="-128"
    x-height="792"
    bbox="0 -128 1024 896"
    underline-thickness="50"
    underline-position="-100"
    unicode-range="U+0078-E624"
  />
<missing-glyph horiz-adv-x="374" 
d="M34 0v682h272v-682h-272zM68 34h204v614h-204v-614z" />
    <glyph glyph-name=".notdef" horiz-adv-x="374" 
d="M34 0v682h272v-682h-272zM68 34h204v614h-204v-614z" />
    <glyph glyph-name=".null" horiz-adv-x="0" 
 />
    <glyph glyph-name="nonmarkingreturn" horiz-adv-x="341" 
 />
    <glyph glyph-name="x" unicode="x" horiz-adv-x="1001" 
d="M281 543q-27 -1 -53 -1h-83q-18 0 -36.5 -6t-32.5 -18.5t-23 -32t-9 -45.5v-76h912v41q0 16 -0.5 30t-0.5 18q0 13 -5 29t-17 29.5t-31.5 22.5t-49.5 9h-133v-97h-438v97zM955 310v-52q0 -23 0.5 -52t0.5 -58t-10.5 -47.5t-26 -30t-33 -16t-31.5 -4.5q-14 -1 -29.5 -0.5
t-29.5 0.5h-32l-45 128h-439l-44 -128h-29h-34q-20 0 -45 1q-25 0 -41 9.5t-25.5 23t-13.5 29.5t-4 30v167h911zM163 247q-12 0 -21 -8.5t-9 -21.5t9 -21.5t21 -8.5q13 0 22 8.5t9 21.5t-9 21.5t-22 8.5zM316 123q-8 -26 -14 -48q-5 -19 -10.5 -37t-7.5 -25t-3 -15t1 -14.5
t9.5 -10.5t21.5 -4h37h67h81h80h64h36q23 0 34 12t2 38q-5 13 -9.5 30.5t-9.5 34.5q-5 19 -11 39h-368zM336 498v228q0 11 2.5 23t10 21.5t20.5 15.5t34 6h188q31 0 51.5 -14.5t20.5 -52.5v-227h-327z" />
    <glyph glyph-name="uniE600" unicode="&#xe600;" 
d="M896 320h-320v-320h-128v320h-320v128h320v320h128v-320h320v-128z" />
    <glyph glyph-name="uniE601" unicode="&#xe601;" 
d="M219 530h586l-293 -292z" />
    <glyph glyph-name="uniE602" unicode="&#xe602;" 
d="M559 767l84 -84l-391 -389l-83 84zM559 767zM169 378l83 83l391 -389l-84 -84zM169 378zM599 437q24 0 41.5 -17.5t17.5 -42t-17.5 -41.5t-42 -17t-41.5 17t-17 41.5t17 42t42 17.5zM599 437zM796 437q25 0 42 -17.5t17 -42t-17 -41.5t-41.5 -17t-42 17t-17.5 41.5
t17.5 42t41.5 17.5zM796 437z" />
    <glyph glyph-name="uniE603" unicode="&#xe603;" 
d="M612 384l301 -301q14 -14 14 -33.5t-14 -33.5l-33 -33q-14 -14 -33.5 -14t-33.5 14l-301 301l-301 -301q-14 -14 -33.5 -14t-33.5 14l-33 33q-14 14 -14 33.5t14 33.5l301 301l-301 301q-14 14 -14 33.5t14 33.5l33 33q14 14 33.5 14t33.5 -14l301 -301l301 301
q14 14 33.5 14t33.5 -14l33 -33q14 -14 14 -33.5t-14 -33.5z" />
    <glyph glyph-name="uniE604" unicode="&#xe604;" 
d="M465 1l-84 84l391 389l83 -84zM465 1zM855 390l-83 -83l-391 389l84 84zM855 390zM425 331q-24 0 -41.5 17.5t-17.5 42t17.5 41.5t42 17t41.5 -17t17 -41.5t-17 -42t-42 -17.5zM425 331zM228 331q-25 0 -42 17.5t-17 42t17 41.5t41.5 17t42 -17t17.5 -41.5t-17.5 -42
t-41.5 -17.5zM228 331z" />
    <glyph glyph-name="uniE605" unicode="&#xe605;" 
d="M805 238h-586l293 292z" />
    <glyph glyph-name="uniE606" unicode="&#xe606;" 
d="M658 677v-586l-292 293z" />
    <glyph glyph-name="uniE607" unicode="&#xe607;" 
d="M366 91v586l292 -293z" />
    <glyph glyph-name="uniE608" unicode="&#xe608;" 
d="M481 133l-403 402q-13 13 -13 31.5t13 31.5l38 37q13 13 31 13t31 -13l334 -333l334 333q13 13 31 13t31 -13l38 -37q13 -13 13 -31.5t-13 -31.5l-403 -402q-13 -13 -31 -13t-31 13z" />
    <glyph glyph-name="uniE609" unicode="&#xe609;" 
d="M543 635l403 -402q13 -13 13 -31.5t-13 -31.5l-38 -37q-13 -13 -31 -13t-31 13l-334 333l-334 -333q-13 -13 -31 -13t-31 13l-38 37q-13 13 -13 31.5t13 31.5l403 402q13 13 31 13t31 -13z" />
    <glyph glyph-name="uniE60A" unicode="&#xe60a;" 
d="M951 612l-536 -544l-342 348l85 88l258 -261l450 457z" />
    <glyph glyph-name="uniE60B" unicode="&#xe60b;" 
d="M128 711q0 20 14.5 34.5t34.5 14.5h247v49q0 20 14.5 34.5t34.5 14.5h99q20 0 34.5 -14.5t14.5 -34.5v-49h247q20 0 34.5 -14.5t14.5 -34.5v-49h-789v49zM868 564v-605q0 -20 -14.5 -34.5t-34.5 -14.5h-592q-21 0 -35.5 14.5t-14.5 34.5v654h691v-49zM375 466
q0 20 -14.5 34.5t-35 14.5t-35 -14.5t-14.5 -34.5v-409q0 -20 14.5 -34.5t35 -14.5t35 14.5t14.5 34.5v409zM572 466q0 20 -14.5 34.5t-35 14.5t-35 -14.5t-14.5 -34.5v-409q0 -20 14.5 -34.5t35 -14.5t35 14.5t14.5 34.5v409zM769 466q0 20 -14.5 34.5t-34.5 14.5
t-34.5 -14.5t-14.5 -34.5v-409q0 -20 14.5 -34.5t34.5 -14.5t34.5 14.5t14.5 34.5v409z" />
    <glyph glyph-name="uniE60C" unicode="&#xe60c;" horiz-adv-x="1025" 
d="M789 812h-554q-79 0 -115 -37.5t-36 -113.5v-554q0 -73 38.5 -112t112.5 -39h554q83 0 117 35.5t34 115.5v554q0 151 -151 151zM1024 715v-662q0 -75 -53 -128t-128 -53h-662q-75 0 -128 53t-53 128v662q0 75 53 128t128 53h662q75 0 128 -53t53 -128zM361 412l92 -184
q3 8 9 22t26.5 55t42.5 80.5t57 91.5t71.5 95.5t84 85.5t95.5 67q-1 -19 -5.5 -62.5t-6 -67t4 -60.5t19.5 -70q-49 -11 -129.5 -89t-150.5 -170.5t-106 -160.5q-73 92 -153 159t-141 90z" />
    <glyph glyph-name="uniE60D" unicode="&#xe60d;" 
d="M512 896q104 0 199 -40.5t163.5 -109t109 -163.5t40.5 -199t-40.5 -199t-109 -163.5t-163.5 -109t-199 -40.5t-199 40.5t-163.5 109t-109 163.5t-40.5 199t40.5 199t109 163.5t163.5 109t199 40.5zM936 384q0 115 -57 212.5t-154.5 154.5t-212.5 57t-212.5 -57
t-154.5 -154.5t-57 -212.5t57 -212.5t154.5 -154.5t212.5 -57t212.5 57t154.5 154.5t57 212.5z" />
    <glyph glyph-name="uniE60E" unicode="&#xe60e;" 
d="M512 896q104 0 198.5 -40.5t163 -109t109 -163.5t40.5 -199t-40.5 -198.5t-109 -163t-163 -109t-198.5 -40.5t-199 40.5t-163.5 109t-109 163t-40.5 198.5t40.5 199t109 163.5t163.5 109t199 40.5z" />
    <glyph glyph-name="uniE60F" unicode="&#xe60f;" 
d="M512 -80q-99 0 -189.5 39t-156 104t-104 155.5t-38.5 189.5t38.5 189.5t104 155.5t156 104t189.5 39t189.5 -39t155.5 -104t103.5 -155.5t38.5 -189.5t-38.5 -189.5t-103.5 -155.5t-155.5 -104t-189.5 -39zM509 805q-107 0 -196.5 -53.5t-140.5 -144.5t-51 -198.5
t51 -197.5t140 -141.5t197 -51.5t199 51.5t144 141.5t53 197.5t-53 199t-144 144.5t-199 53zM707 360h-146v-147q0 -20 -14.5 -34t-34.5 -14t-34.5 14t-14.5 34v147h-146q-20 0 -34.5 14t-14.5 34q0 21 14.5 35t34.5 14h146v146q0 21 14.5 35t34.5 14t34.5 -14t14.5 -35
v-146h146q20 0 34.5 -14t14.5 -35q0 -20 -14.5 -34t-34.5 -14z" />
    <glyph glyph-name="uniE610" unicode="&#xe610;" 
d="M672 246q-64 -65 -151 -87.5t-173.5 0t-151 87t-87.5 151.5t0 173.5t87.5 151t151 87.5t173.5 0t151.5 -87.5t87.5 -151t0 -173.5t-88 -151zM270 649q-68 -69 -68 -165.5t68 -164.5t164.5 -68t164.5 68t68 164.5t-68 165t-164.5 68.5t-164.5 -69v1zM931 88
q19 -18 19 -44.5t-19 -45.5l-11 -11q-19 -19 -45 -19t-45 19l-231 231q-19 19 -19 45.5t19 44.5l11 12q19 18 45 18t45 -18zM931 88z" />
    <glyph glyph-name="uniE611" unicode="&#xe611;" 
d="M789 812h-554q-79 0 -115 -37.5t-36 -113.5v-554q0 -73 38.5 -112t112.5 -39h554q82 0 116.5 35.5t34.5 115.5v554q0 75 -38 113t-113 38zM1024 715v-662q0 -75 -53 -128t-128 -53h-662q-75 0 -128 53t-53 128v662q0 75 53 128t128 53h662q75 0 128 -53t53 -128z" />
    <glyph glyph-name="uniE612" unicode="&#xe612;" 
d="M1024 715v-662q0 -75 -53 -128t-128 -53h-662q-75 0 -128 53t-53 128v662q0 75 53 128t128 53h662q75 0 128 -53t53 -128z" />
    <glyph glyph-name="uniE613" unicode="&#xe613;" 
d="M1024 715v-662q0 -75 -53 -128t-128 -53h-662q-75 0 -128 53t-53 128v662q0 75 53 128t128 53h662q75 0 128 -53t53 -128zM853 464q-15 33 -20 70t-4 60.5t6 67.5t6 63q-66 -35 -130.5 -99.5t-108.5 -130t-79 -128.5t-52 -100.5t-17 -39.5l-92 184l-191 -119
q62 -22 142 -89.5t153 -159.5q36 68 106 160.5t151 171t130 89.5z" />
    <glyph glyph-name="uniE614" unicode="&#xe614;" 
d="M227 431h143v-146h-143v146zM443 285h143v146h-143v-146zM659 285h143v146h-143v-146zM227 72h143v146h-143v-146zM443 72h143v146h-143v-146zM659 72h143v146h-143v-146zM855 725q0 -19 -13 -32t-31 -13t-31 13t-13 32v113q0 19 13 32t31 13t31 -13t13 -32v-113z
M259 838q0 19 -13 32t-31 13t-31 -13t-13 -32v-113q0 -18 13 -31.5t31 -13.5t31 13.5t13 31.5v113zM909 773v-46q0 -41 -29 -70.5t-69 -29.5t-68.5 29.5t-28.5 70.5v46h-401v-46q0 -41 -29 -70t-69 -29t-68.5 29t-28.5 70v46h-106v-888h1000v888h-103zM109 534h806v-550
h-806v550z" />
    <glyph glyph-name="uniE615" unicode="&#xe615;" 
d="M661 555l70 -67q7 -6 7 -16t-7 -16l-70 -67q-6 -5 -14 -5q-9 0 -15 6.5t-6 15.5t7 16l29 28h-353q-8 0 -14.5 6.5t-6.5 15.5t6.5 15.5t14.5 6.5h353l-29 28q-7 7 -7 16t6 15.5t15 6.5q8 0 14 -5zM401 347q0 -10 -7 -17l-30 -27h353q9 0 15 -6.5t6 -16t-6 -16t-15 -6.5
h-353l30 -27q7 -7 7 -17q0 -9 -6.5 -15.5t-14.5 -6.5t-14 6l-71 66q-7 7 -7 16.5t7 16.5l71 66q6 6 14 6t14.5 -6.5t6.5 -15.5z" />
    <glyph glyph-name="uniE616" unicode="&#xe616;" 
d="M512 823q-117 0 -216.5 -58t-157.5 -157.5t-58 -216.5t58 -216.5t157.5 -157.5t216.5 -58t216.5 58t157.5 157.5t58 216.5t-58 216.5t-157.5 157.5t-216.5 58zM721 234l-53 -52l-156 157l-156 -157l-53 52l157 157l-157 156l52 53l157 -157l156 157l53 -53l-157 -156z
" />
    <glyph glyph-name="uniE617" unicode="&#xe617;" 
d="M512 -128q-104 0 -199 40.5t-163.5 109t-109 163.5t-40.5 199t40.5 199t109 163.5t163.5 109t199 40.5t199 -40.5t163.5 -109t109 -163.5t40.5 -199t-40.5 -199t-109 -163.5t-163.5 -109t-199 -40.5zM323 616q-39 0 -66.5 -27t-27.5 -66t27.5 -66t66.5 -27t66.5 27
t27.5 66t-27.5 66t-66.5 27zM510 152q-39 0 -74 15t-57 36.5t-38.5 43t-23.5 36.5l-7 15l-79 -56q3 -8 10 -20.5t32 -44.5t54.5 -56.5t78.5 -44.5t104 -20q56 0 105 19.5t79.5 46t53 55t32.5 46.5t9 19l-75 55q-3 -6 -8.5 -16t-24 -35t-40 -44t-57 -34.5t-74.5 -15.5z
M695 616q-39 0 -66.5 -27t-27.5 -66t27.5 -66t66.5 -27t66.5 27t27.5 66t-27.5 66t-66.5 27z" />
    <glyph glyph-name="uniE618" unicode="&#xe618;" 
d="M507 890l5 -477l192 194q3 2 7 5.5t14.5 4t17.5 -11.5l51 -49q2 -2 4.5 -5t3 -11.5t-7.5 -15.5l-139 -140l363 -19q-3 1 0.5 17.5t-2 46.5t-10 68t-22.5 81t-40 85.5t-63 82.5t-90.5 71t-123 50.5t-160.5 22.5zM1018 365l-363 19l-143 -142v-364h16q11 0 43.5 4t64.5 11
t76 23.5t82 39.5t78 61t69.5 85t50.5 115t26 148zM512 -122v364l-81 -82q-2 -2 -5.5 -5t-14 -3.5t-21.5 8.5l-213 213l-171 17q-1 -6 -1 -16.5t2.5 -43.5t9 -65t22.5 -76t39.5 -82t62.5 -78.5t89 -70.5t122.5 -52t159.5 -28zM6 390l171 -17q-2 2 -5 4.5t-3.5 10.5t8.5 16
l62 61q10 11 20 0l151 -151l102 99l-5 477h-17q-10 0 -41.5 -4.5t-62.5 -12t-74 -24.5t-80.5 -40.5t-77 -62.5t-69 -87t-51 -117.5t-28.5 -151.5zM495 890v-493l36 35l18 456z" />
    <glyph glyph-name="uniE619" unicode="&#xe619;" 
d="M429 454v68q0 43 22.5 66.5t58.5 23.5q41 0 64.5 -23.5t23.5 -66.5v-68h82v87q0 33 -14 61t-37 49.5t-53 33.5t-63 12q-37 0 -67.5 -12t-53.5 -33.5t-35.5 -49.5t-12.5 -61v-87h85zM766 132v215q0 27 -18.5 45.5t-45.5 18.5h-380q-27 0 -45.5 -18.5t-18.5 -45.5v-215
q0 -26 18.5 -44.5t45.5 -18.5h380q27 0 45.5 18.5t18.5 44.5zM1023 713v-661q0 -74 -53 -127t-128 -53h-660q-75 0 -128 53t-53 127v661q0 75 53 128t128 53h660q75 0 128 -53t53 -128z" />
    <glyph glyph-name="uniE61A" unicode="&#xe61a;" 
d="M964 113l-370 623q-34 58 -82 58t-82 -58l-370 -623q-34 -57 -9.5 -98t91.5 -41h740q67 0 91.5 41t-9.5 98zM461 560q20 21 51 21t51 -21t20 -52q0 -7 -7.5 -47.5t-16.5 -98.5t-13 -99h-67q-3 42 -12.5 99.5t-17.5 98t-8 47.5q0 31 20 52zM562 105q-21 -20 -50 -20
t-50 20t-21 48t21 48.5t50 20.5t50 -20.5t21 -48.5t-21 -48z" />
    <glyph glyph-name="uniE61B" unicode="&#xe61b;" 
d="M128 0h640v-64h-640v64zM64 704h64v-768h-64v768zM704 832h-448q-18 0 -31 -7t-19 -16.5t-9.5 -19t-4.5 -16.5v-7v-638q0 -18 6.5 -31t16 -19t19 -9.5t15.5 -4.5h7h576q18 0 31 6.5t19 16t9.5 19t4.5 15.5v7v512zM320 384h448v-64h-448v64zM320 512h448v-64h-448v64z
M320 256h448v-64h-448v64zM704 640v128l128 -128h-128z" />
    <glyph glyph-name="uniE61C" unicode="&#xe61c;" 
d="M747 500q-24 89 -93 154.5t-158 65.5q-111 0 -182.5 -71.5t-78.5 -192.5q-71 0 -121 -46.5t-50 -121.5q0 -51 23.5 -106.5t63.5 -94.5t81 -39h560q51 1 90.5 44.5t58.5 103.5t19 120q0 46 -11.5 83.5t-36.5 67t-66 37.5t-99 -4zM680 334q-1 -3 -4 -3h-103v-159
q0 -5 -3 -8.5t-8 -3.5h-100q-5 0 -8 3.5t-3 8.5v159h-103q-3 0 -3.5 2.5t0.5 4.5l159 155q4 3 8 3t8 -3l159 -155q1 -2 1 -4zM680 334z" />
    <glyph glyph-name="uniE61D" unicode="&#xe61d;" 
d="M202 694q-83 -83 -112.5 -194t0 -222.5t112.5 -193.5q62 -63 142.5 -95t162.5 -32t162.5 32t143 94.5t94.5 143t32 162.5t-32 162.5t-95 142.5q-82 83 -193.5 112.5t-222.5 0t-194 -112.5zM765 426v-74h-221v-221h-74v221h-221v74h221v221h74v-221h221z" />
    <glyph glyph-name="uniE61E" unicode="&#xe61e;" 
d="M932 128l-179 -182v-1q-2 -2 -14 -7q-1 0 -2 -1l-2 -1h-1h-1h-1q-4 0 -10 2q-3 2 -8 6h-1q-1 1 -1 2l-193 182q-9 10 -6.5 23t12.5 23t23.5 10t23.5 -10l132 -126v686q0 14 9 24t22 10t20.5 -9.5t7.5 -24.5v-686l129 126q9 10 22.5 10t23.5 -10q3 -3 4 -6t0.5 -9.5
t-0.5 -7.5q0 -13 -10 -23zM371 447l30 -64q5 -12 15 -20.5t29 -7.5q10 0 18.5 2.5t14 8t6.5 13t-3 18.5l-133 347q-3 9 -13.5 16.5t-28.5 7.5t-28.5 -7t-13.5 -17l-132 -346q-9 -23 3 -33t31.5 -10t30.5 8q10 9 16 22l28 62h130zM257 512l49 128l49 -128h-98zM189 256
q-13 0 -23 -7t-10 -23t10.5 -22.5t22.5 -6.5h168l-217 -225q-7 -8 -7 -15q0 -8 9 -15q9 -6 21 -6h270q11 0 22 6.5t11 23.5q0 16 -10 22.5t-23 6.5h-183l217 225q9 11 9 19q0 6 -8.5 11.5t-18.5 5.5h-260z" />
    <glyph glyph-name="uniE61F" unicode="&#xe61f;" 
d="M512 676q121 0 206.5 -85.5t85.5 -206.5t-85.5 -206.5t-206.5 -85.5t-206.5 85.5t-85.5 206.5t85.5 206.5t206.5 85.5zM512 896q104 0 199 -40.5t163.5 -109t109 -163.5t40.5 -199t-40.5 -199t-109 -163.5t-163.5 -109t-199 -40.5t-199 40.5t-163.5 109t-109 163.5
t-40.5 199t40.5 199t109 163.5t163.5 109t199 40.5zM512 -40q115 0 212.5 57t154.5 154.5t57 212.5t-57 212.5t-154.5 154.5t-212.5 57t-212.5 -57t-154.5 -154.5t-57 -212.5t57 -212.5t154.5 -154.5t212.5 -57z" />
    <glyph glyph-name="uniE620" unicode="&#xe620;" 
d="M839.5 56q-93.5 -94 -219 -127t-251 0t-219.5 127q-70 70 -106.5 161t-36.5 183.5t36.5 183.5t106.5 161.5t161.5 107t183.5 36.5t183.5 -36.5t161.5 -106.5q93 -94 126.5 -219.5t0 -251t-127 -219.5zM213 679q-76 -76 -102 -176.5t2.5 -201t104.5 -177t175.5 -103.5
t199 -0.5t176 103t104.5 177t2 201.5t-102 177t-178 103.5t-204 0t-178 -103.5zM667 505l-103 -104l103 -103q15 -14 15 -34.5t-15 -34.5q-14 -14 -34 -14t-35 14l-103 103l-104 -103q-14 -14 -34 -14t-34 14h-1q-14 14 -14 34.5t14 34.5l104 103l-104 104q-14 14 -14 34
t14 35h1q14 14 34 14t34 -14l104 -104l103 104q15 14 35 14t34 -14q15 -15 15 -35t-15 -34z" />
    <glyph glyph-name="uniE621" unicode="&#xe621;" 
d="M380 68l-191 -35l38 188zM681 675l-69 -69l153 -153l69 69zM262 255l153 -153l316 317l-153 153z" />
    <glyph glyph-name="uniE622" unicode="&#xe622;" 
d="M702 -61h-382q-230 -5 -254 49q-3 8 -1 15q-1 38 16.5 71t44 55t64 40.5t68 28t62.5 17.5q69 16 67 95q-55 36 -86.5 100.5t-31.5 142.5t26 140.5t81.5 100.5t134.5 38q63 0 110.5 -21.5t75.5 -60.5t41.5 -88.5t13.5 -108.5q0 -78 -31.5 -142t-86.5 -100q-1 -80 68 -96
q32 -8 62 -17.5t67.5 -28t64 -40.5t44.5 -55t16 -71v-12q-16 -50 -208 -52h-46z" />
    <glyph glyph-name="uniE623" unicode="&#xe623;" 
d="M161 560h176v176h-176v-176zM424 34h176v175h-176v-175zM161 34h176v175h-176v-175zM161 297h176v176h-176v-176zM424 297h176v176h-176v-176zM688 560h175v176h-175v-176zM424 560h176v176h-176v-176zM688 297h175v176h-175v-176zM688 34h175v175h-175v-175z" />
    <glyph glyph-name="uniE624" unicode="&#xe624;" 
d="M500 -101q-101 0 -192.5 39t-158 105.5t-105.5 158t-39 192.5t39 192.5t105.5 158t158 105.5t192 39t192.5 -39t158 -105.5t105.5 -158t39.5 -192.5t-39.5 -192.5t-105.5 -158t-158 -105.5t-192 -39v0zM500 833q-90 0 -171 -34.5t-140 -93.5t-93.5 -140.5t-34.5 -170.5
t34.5 -170.5t93.5 -140t140 -93.5t170.5 -35t171 35t140 93.5t93.5 140t35 170.5t-35 170.5t-93.5 140.5t-140 93.5t-170.5 34.5v0zM278 231q-5 10 -1 21.5t14 16.5l200 70v296q0 12 7.5 20.5t19 8.5t19.5 -8.5t8 -20.5v-312l-1 -1v-2q1 -19 -15 -27l-215 -76q-10 -5 -21 -1
t-15 15v0z" />
  </font>
</defs>
</svg>
